<svg width="1432" height="807" viewBox="0 0 1432 807" fill="none" xmlns="http://www.w3.org/2000/svg">
<rect width="1432" height="807" fill="#1C2532"/>
<rect x="58" y="108" width="247" height="114" rx="5" fill="#252E3E"/>
<rect x="325" y="108" width="247" height="114" rx="5" fill="#252E3E"/>
<rect x="592" y="109" width="247" height="114" rx="5" fill="#252E3E"/>
<rect x="859" y="109" width="247" height="114" rx="5" fill="#252E3E"/>
<rect x="1126" y="109" width="247" height="114" rx="5" fill="#252E3E"/>
<rect width="1432" height="69" rx="5" fill="#252E3E"/>
<rect x="859" y="244" width="514" height="318" rx="5" fill="#252E3E"/>
<rect x="50" y="244" width="781" height="318" rx="5" fill="#252E3E"/>
<rect x="50" y="588" width="781" height="182" rx="5" fill="#252E3E"/>
<rect x="859" y="588" width="514" height="182" rx="5" fill="#252E3E"/>
<rect x="908" y="21" width="114" height="26" rx="5" fill="#3C4759"/>
<rect x="791" y="21" width="114" height="26" rx="5" fill="#3C4759"/>
<rect x="1025" y="21" width="114" height="26" rx="5" fill="#3C4759"/>
<rect x="1142" y="21" width="114" height="26" rx="5" fill="#3C4759"/>
<rect x="1259" y="21" width="114" height="26" rx="5" fill="#3C4759"/>
</svg>
